<?xml version="1.0" encoding="iso-8859-1"?>
<!-- Generator: Adobe Illustrator 19.0.0, SVG Export Plug-In . SVG Version: 6.00 Build 0)  -->
<svg version="1.1" id="Layer_1" xmlns="http://www.w3.org/2000/svg" xmlns:xlink="http://www.w3.org/1999/xlink" x="0px" y="0px"
	 viewBox="0 0 512.001 512.001" style="enable-background:new 0 0 512.001 512.001;" xml:space="preserve">
<path style="fill:#fff;" d="M145.836,474.844c-8.901,0-19.826-6.308-24.276-14.016L11.394,270.016
	c-4.451-7.709-4.451-20.323,0-28.031L121.559,51.173c4.451-7.708,15.375-14.016,24.276-14.016h220.33
	c8.901,0,19.826,6.308,24.276,14.016l110.164,190.812c4.451,7.709,4.451,20.323,0,28.031L390.442,460.828
	c-4.451,7.709-15.375,14.016-24.276,14.016H145.836z"/>
<g>
	<path style="fill:#a855f7;" d="M362.167,447.978H149.834c-2.892,0-5.562-1.542-7.008-4.046L36.66,260.046
		c-1.446-2.503-1.446-5.589,0-8.092L142.826,68.068c1.446-2.504,4.117-4.046,7.008-4.046h212.333c2.892,0,5.562,1.542,7.008,4.046
		l106.167,183.886c1.446,2.503,1.446,5.589,0,8.092L369.175,443.932C367.729,446.436,365.057,447.978,362.167,447.978z
		 M154.506,431.794h202.989L458.99,256L357.495,80.206H154.506L53.011,256L154.506,431.794z"/>

</g>
<path style="fill:#a855f7;" d="M366.165,482.936h-220.33c-11.695,0-25.436-7.934-31.284-18.062L4.386,274.062
	c-5.848-10.128-5.848-25.995,0-36.123L114.551,47.127c5.848-10.128,19.589-18.062,31.284-18.062h220.33
	c11.695,0,25.436,7.934,31.284,18.062l110.165,190.812c5.848,10.128,5.848,25.995,0,36.123L397.45,464.875
	C391.602,475.003,377.86,482.936,366.165,482.936z M145.836,45.249c-6.025,0-14.256,4.752-17.269,9.97L18.402,246.03
	c-3.012,5.218-3.012,14.722,0,19.939l110.165,190.812c3.012,5.218,11.244,9.97,17.269,9.97h220.33c6.025,0,14.256-4.752,17.269-9.97
	L493.6,265.97c3.012-5.218,3.012-14.721,0-19.939L383.433,55.219c-3.012-5.218-11.244-9.97-17.269-9.97
	C366.164,45.249,145.836,45.249,145.836,45.249z"/>
<g>
</g>
<g>
</g>
<g>
</g>
<g>
</g>
<g>
</g>
<g>
</g>
<g>
</g>
<g>
</g>
<g>
</g>
<g>
</g>
<g>
</g>
<g>
</g>
<g>
</g>
<g>
</g>
<g>
</g>
</svg>
