<?xml version="1.0" encoding="UTF-8"?>
<svg version="1.1" viewBox="0 0 30 30" xmlns="http://www.w3.org/2000/svg">

<g transform="translate(0 -289.06)">
<path transform="translate(0 289.06)" d="m4.9883 5v2h1.416l4.0254 7.9043-1.3301 2.7598c-0.47331 0.98266 0.79797 2.3359 1.8887 2.3359h12v-2h-12l0.93945-2h8.5605c0.554 0 0.74669-0.5073 1-1l3.4668-6.7422c0.25331-0.49269-0.4128-1.2578-0.9668-1.2578h-15.338l-1.0176-2h-1.6445-0.60156-0.39844zm6 16a2 2 0 0 0-2 2 2 2 0 0 0 2 2 2 2 0 0 0 2-2 2 2 0 0 0-2-2zm10 0a2 2 0 0 0-2 2 2 2 0 0 0 2 2 2 2 0 0 0 2-2 2 2 0 0 0-2-2z"/>
</g>
</svg>
